<?xml version="1.0" encoding="UTF-8"?>
<!DOCTYPE svg PUBLIC "-//W3C//DTD SVG 1.1//EN" "http://www.w3.org/Graphics/SVG/1.1/DTD/svg11.dtd">
<!-- Creator: CorelDRAW X6 -->
<svg xmlns="http://www.w3.org/2000/svg" xml:space="preserve" width="201px" height="250px" version="1.1" shape-rendering="geometricPrecision" text-rendering="geometricPrecision" image-rendering="optimizeQuality" fill-rule="evenodd" clip-rule="evenodd"
viewBox="0 0 201 249"
 xmlns:xlink="http://www.w3.org/1999/xlink">
 <g id="Caricatura">
  <metadata id="CorelCorpID_0Corel-Layer"/>
  <path id="pele" fill="#F5D4A9" d="M189 103c2,-3 3,-7 2,-10 0,-2 -1,-3 -2,-5 1,-5 2,-10 1,-12 1,-1 2,-2 2,-3 0,-1 1,-2 1,-2 0,-1 2,-3 1,-5 -1,-3 -2,-6 -3,-8 0,-2 -1,-3 -2,-5 -1,-2 -2,-3 -2,-5 -1,-3 -2,-6 -3,-10 -1,-2 -1,-4 -2,-6 -1,-2 -2,-4 -4,-6 -1,-1 -2,-1 -2,-2 -3,-3 -5,-6 -7,-9l-29 -11 -28 7 -16 11 -5 19c-1,3 -3,5 -5,6l2 16c1,5 -3,10 -9,11 -3,0 -7,-1 -9,-4 0,3 -1,5 -2,8 -1,1 -2,1 -2,1 0,0 -1,0 -1,1 -2,1 -3,3 -4,5 -2,4 -3,8 -2,13 0,2 1,5 1,7 1,3 2,6 5,9l0 0c0,0 0,0 0,1 0,0 0,0 0,0 0,1 1,2 1,3 0,6 -2,11 -7,16l78 96 14 -37c1,-7 4,-13 12,-17 1,0 1,-1 2,-1 6,-4 9,-6 9,-6 0,0 1,-1 2,-2 1,-1 2,-3 2,-5 1,-2 1,-3 1,-3 0,0 1,-3 3,-7 6,-11 9,-20 9,-27 0,-8 0,-13 -2,-16 0,-1 -1,-2 -1,-4z"/>
  <path id="sombraPele" fill="#9C7346" d="M186 101c-2,1 -3,2 -3,3 1,-1 2,-1 2,0 2,-1 2,-2 1,-3zm-12 2c2,-1 2,-2 1,-3 -6,-1 -10,0 -11,2 4,0 8,0 10,1zm17 -31c-2,-4 -9,-5 -12,-3l0 2c3,-1 8,-1 11,2zm-48 41c0,-2 7,-13 7,-16 -2,5 -5,9 -8,12 1,1 1,3 1,4zm-7 -44c10,-4 16,-5 24,4 -7,-12 -17,-11 -24,-4zm-62 40c-2,-2 -5,-4 -6,-11 0,3 1,7 3,11 1,0 2,0 2,0 0,0 0,0 1,0 0,0 0,0 0,0zm-4 0c-12,-4 -6,-30 4,-25 -3,-3 -6,-4 -8,-1 -2,2 -4,6 -3,12 0,6 1,10 3,12 1,1 2,2 4,2zm8 -16l-6 -5c-3,3 -4,6 -4,10 3,-3 6,-4 10,-5zm-4 32c2,1 8,2 13,17 -4,-9 -6,-16 -6,-20 -2,3 -5,4 -7,3zm84 12l13 7 11 -7c-8,3 -16,4 -24,0zm7 12c2,2 4,4 4,7 1,-2 3,-5 6,-7 -3,1 -6,1 -10,0zm-18 14c1,2 10,9 5,20 2,-3 5,-6 9,-8 1,0 1,-1 2,-1 6,-4 9,-6 9,-6 -12,2 -20,0 -25,-5z"/>
  <path id="branco" fill="white" d="M161 73c-1,-2 -3,-3 -4,-4 -2,-1 -4,-2 -7,-3 -4,-1 -7,0 -12,2 0,0 0,0 0,0 0,1 0,2 -1,2 0,0 0,0 0,1 3,2 6,2 9,2 5,0 11,-1 14,-1zm23 2c2,1 4,1 6,1 0,0 0,0 0,0 1,-1 2,-2 2,-3 0,0 0,0 0,0 -3,-2 -6,-3 -9,-2 0,2 0,3 1,5l0 0zm-17 52c-1,0 -1,0 -2,0 -2,0 -3,0 -5,0 -2,0 -4,0 -5,1 -1,1 -3,1 -5,2 2,1 4,1 6,2 2,0 3,1 5,1 8,1 17,1 24,-2 -1,0 -1,-1 -2,-1 0,0 0,0 -1,0 -1,0 -2,-1 -3,-1 -2,-1 -3,-1 -6,-1l-1 0c-2,0 -4,0 -7,0zm-19 122l53 0c-7,-31 -16,-60 -46,-67 -1,2 -3,4 -3,7 0,1 0,2 -1,3 -1,5 -4,9 -9,13 -3,0 -8,-3 -14,-9 -1,-1 -7,-8 -19,-21 -5,-6 -10,-11 -14,-15 -3,-3 -6,-6 -9,-9 -9,-8 -18,-14 -27,-17 -3,2 -5,4 -6,6 -3,4 -3,9 -4,12 -32,23 -58,51 -46,97l145 0z"/>
  <path id="preto" fill="black" d="M186 73c0,0 0,0 0,0 0,0 0,0 0,1 0,0 0,0 1,0 0,0 0,0 1,0 0,0 0,0 0,0 0,0 0,0 0,-1 0,0 0,0 0,0 0,0 0,0 -1,0zm-40 -1c0,0 0,0 1,0 0,0 1,0 1,0 0,0 0,0 0,-1 0,0 0,-1 0,-1 0,0 0,0 -1,0 0,0 -1,0 -1,0 0,0 0,0 0,1 0,0 0,1 0,1zm-70 9c3,2 5,7 6,14 3,-2 6,-4 9,-8 1,-8 1,-15 0,-23l3 -5c4,-7 5,-13 5,-16 -1,-4 -1,-8 -1,-11 0,-4 1,-7 4,-9 3,-2 5,-4 6,-6 2,-1 4,-3 7,-4 3,-1 6,-2 8,-2 3,-1 6,-1 9,-1 3,0 7,0 11,0 4,0 7,1 11,2 3,1 6,2 9,4 3,1 5,3 8,5 2,2 4,3 6,5 -4,-5 -7,-9 -9,-12 -2,-3 -5,-5 -9,-7 -9,-3 -16,-5 -20,-5 -5,0 -11,1 -18,2 -8,2 -14,4 -18,6 -11,6 -19,12 -23,17 -6,14 -9,24 -9,31 0,6 0,10 0,10 1,4 0,8 -2,11 2,-1 5,-1 9,1zm54 -17c10,-3 20,-3 33,0 2,-1 1,-3 -1,-4 -4,-1 -8,-2 -12,-3 -2,0 -4,0 -5,0 -6,-1 -10,-1 -14,0 -5,1 -6,3 -5,6l5 0zm56 -1c-9,0 -11,1 -7,3 5,-2 9,0 14,5 1,-2 1,-3 1,-4 -1,-2 -4,-3 -7,-3zm-38 52c-1,0 -2,1 -2,2 -1,1 -1,1 -2,2 -1,1 -2,2 -3,3 -1,1 -2,3 -2,5 0,2 0,3 0,5 2,1 4,2 6,2 0,0 0,0 1,0 1,0 2,-1 3,-1 0,0 1,-1 1,-1 0,0 1,0 1,0 2,-1 3,-2 5,-3 1,0 2,-1 5,-1 1,0 3,0 5,0 1,0 1,0 2,0 3,0 5,0 7,0l1 0c2,0 4,0 6,1 1,0 2,1 3,1 0,0 0,0 1,0 1,0 1,1 2,1 0,0 1,0 1,0 2,1 4,2 7,2 1,-1 2,-3 1,-6 -1,-4 -2,-7 -4,-11 -1,-2 -2,-3 -3,-3 -1,-1 -3,-1 -5,-2 -2,0 -4,-1 -6,-1l-5 0c-3,0 -6,-1 -9,-1 -1,0 -3,0 -4,0 -2,0 -5,1 -7,2 -2,1 -4,2 -6,3z"/>
  <path id="pretoClaro" fill="#1A1A1A" fill-rule="nonzero" d="M196 84c1,0 2,0 2,-1l0 0 0 0c0,0 1,-1 1,-1 0,-1 1,-1 1,-2l0 0c0,0 0,0 0,0 0,-1 0,-2 0,-2 0,-1 0,-1 0,-2 0,-1 0,-1 0,-2 0,-1 0,-1 0,-2l0 0 0 0 0 0c0,-1 0,-1 -1,-2 0,-1 -1,-1 -1,-2 0,-1 -1,-1 -1,-2 0,0 0,0 0,0l0 0 0 0 0 0c-1,-1 -2,-2 -4,-3l0 0 0 0 0 0 0 0c-1,0 -1,0 -2,-1l0 0c0,0 -1,0 -1,0 -1,0 -1,0 -2,-1 -1,0 -1,0 -2,-1 0,0 -1,0 -1,0 -1,0 -2,0 -2,1 -1,1 -1,1 -1,2 0,1 0,1 0,2l0 2 0 0 -2 0 -3 0 0 -2c0,-2 -1,-3 -2,-5 -1,-1 -3,-2 -4,-2l-15 -2c-3,0 -5,0 -7,0 -2,1 -5,2 -6,3 -2,1 -4,3 -5,6 0,0 0,1 0,1 0,0 0,0 0,0l-44 11 -13 3c0,0 -1,1 -1,1 0,0 0,0 0,0l0 0c0,0 1,1 1,1 0,0 0,1 1,2 0,0 1,1 1,1l11 -2 43 -9 0 0 0 1c0,2 0,3 1,4 1,1 2,3 3,4 1,1 3,2 4,2 1,0 3,1 5,1l13 -1c2,0 4,-1 6,-1 2,-1 3,-2 5,-3 1,-1 2,-3 3,-5 0,-1 1,-2 1,-4l0 0c2,0 4,0 5,0 0,1 0,2 1,2 0,1 1,1 1,2l0 0 0 0c0,1 1,1 1,2 0,1 1,1 1,2l0 0c0,0 1,1 1,1 1,0 1,1 2,1l0 0c0,0 1,0 1,0l0 0 0 0 0 0 0 0 0 0 0 0 0 0 0 0 0 0 0 0 0 0 0 0 0 0 0 0 0 0 0 0 0 0 0 0 0 0 0 0 0 0 0 0 0 0 0 0 0 0 0 0 0 0 0 0 0 0 0 0 0 0 0 0 0 0 0 0 0 0 0 0 0 0 0 0 0 0 0 0 0 0 0 0 0 0 0 0 0 0 0 0 0 0 0 0 0 0 0 0 0 0 0 0 0 0 0 0 0 0 0 0 0 0 0 0 0 0 0 0 0 0 0 0 0 0 0 0 0 0 0 0 0 0 0 0 0 0 0 0 0 0 0 0 0 0 0 0 0 0 0 0 0 0 0 0 0 0 0 0 0 0 0 0 0 0 0 0 0 0 0 0 0 0 0 0 0 0 0 0 0 0 1 0c1,0 1,0 2,0 0,0 1,0 1,0 0,0 1,0 1,0l0 0 0 0 0 0 0 0 0 0 0 0 0 0 0 0 0 0zm-7 -14c-1,0 -2,0 -2,-1 -1,0 -2,2 -2,3 0,1 0,2 1,2 1,0 2,1 3,1 1,-1 1,-2 1,-3 0,-1 0,-2 -1,-2zm-2 2c0,0 0,0 0,0 0,0 0,0 1,0 0,0 0,0 0,0 0,0 0,0 0,1 0,0 0,0 0,0 0,0 0,0 -1,0 0,0 0,0 -1,0 0,0 0,0 0,-1zm-40 -7c-1,0 -1,1 -2,1 -1,1 -1,2 -1,3 0,1 0,2 1,3 0,0 0,0 0,0 1,0 3,0 5,0 0,0 1,0 1,-1 1,-1 1,-2 1,-3 0,-1 0,-2 -1,-3 0,0 -1,-1 -2,-1 -1,0 -2,0 -3,0 0,0 0,0 0,0zm2 3c0,0 0,0 1,0 0,0 0,0 0,1 0,0 0,1 0,1 0,0 0,0 -1,0 0,0 -1,0 -1,0 0,0 0,0 0,-1 0,0 0,-1 0,-1 0,0 1,0 1,0zm44 3c0,1 -1,2 -2,3 0,1 0,1 0,2 1,0 2,0 2,0l6 -1c0,1 0,1 0,2l0 0c0,0 0,0 0,0 0,1 0,1 -1,2l0 0 0 0 0 0 0 0 0 0 0 0 0 0 0 0 0 0 0 0c0,0 -1,1 -1,1 0,0 0,0 0,0l0 0c0,0 -1,0 -1,0 0,0 -1,0 -1,0l0 0 0 0 0 0 0 0 0 0 0 0 0 0 0 0 0 0 0 0c0,0 -1,0 -1,0 -1,0 -1,0 -2,0l0 0c0,0 -1,0 -1,0l0 0c0,0 0,0 0,0l0 0 0 0c0,0 -1,0 -1,-1 0,0 -1,-1 -1,-1l0 0c0,0 -1,-1 -1,-1 0,-1 -1,-1 -1,-2l0 0c0,-1 -1,-1 -1,-2 0,-1 0,-1 -1,-2 0,-1 0,-1 0,-2 0,-1 0,-2 0,-3l0 -2c0,0 0,-1 0,-1 0,-1 0,-1 1,-2 0,0 1,-1 1,-1 0,0 0,0 0,0 1,0 1,0 2,1 1,0 1,0 2,1 1,0 1,0 1,0l0 0c1,0 1,0 2,1l0 0c0,0 1,0 1,1 0,0 0,0 1,0l0 0 0 0 0 0c0,0 0,0 1,0 0,0 1,1 1,1 0,0 0,0 0,0 0,0 0,1 1,1l0 0 0 0 0 0 0 0c0,1 1,1 1,2l0 0 0 0 0 0 0 0 0 0 0 0 0 0 0 0 0 0 0 0 0 0 0 0 0 0 0 0 0 0 0 0 0 0 0 0 0 0 0 0 0 0 0 0 0 0 0 0 0 0 0 0 0 0 0 0 0 0 0 0 0 0 0 0 -6 1zm-54 -1c0,-2 1,-3 1,-4 1,-2 2,-4 4,-5 2,-1 4,-2 6,-3 2,0 4,-1 7,0l15 2c1,0 2,1 3,2 1,1 1,2 1,3l0 2 0 3c0,2 0,3 -1,5 -1,1 -1,3 -3,4 -1,1 -3,2 -4,3 -2,1 -3,1 -5,1l-13 1c-1,0 -3,0 -4,-1 -1,0 -3,-1 -4,-2 -1,-1 -2,-2 -3,-3 -1,-1 -1,-2 -1,-4l0 -2c0,-1 0,-1 0,-2z"/>
  <path id="sombraCinza" fill="#CCCCCC" d="M131 214c-20,-33 -45,-59 -78,-75 -2,4 -3,8 -4,12 15,1 43,22 82,62zm-38 35c-8,2 -8,-13 -14,-28 4,8 4,17 3,28 4,0 7,0 11,0zm86 -53c9,14 15,28 15,53 2,0 6,0 7,0 -4,-21 -10,-40 -22,-53zm-35 17c5,-2 8,-4 9,-7 0,0 3,-2 6,-7 -2,-6 -4,-10 -8,-10 8,10 1,17 -7,25z"/>
 </g>
</svg>
